<svg  viewBox="0 0 273 61" xmlns="http://www.w3.org/2000/svg">
    <g fill="#000" fill-rule="evenodd">
        <path d="M265 7v9.4h-25v9.399l20 .001v9.4l-20-.001V44.6h25V54h-35V7h35zM198 54h-10V7h10v37.6h25V54h-25zM143 16.4V7h35v9.4l-22.499 28.199L178 44.6V54h-35v-9.4l.001-.001L165.5 16.4H143zM101 16.4V7h35v9.4l-22.499 28.199L136 44.6V54h-35v-9.4l.001-.001L123.5 16.4H101zM27.267 7C37.06 7 45 14.365 45 23.45c0 8.994-7.781 16.303-17.44 16.448l-.293.002H17.133V54H7V7h20.267zm0 9.4H17.133v14.1h10.134c4.197 0 7.6-3.156 7.6-7.05 0-3.894-3.403-7.05-7.6-7.05zM94 7v28.2h-.023C93.466 45.666 84.494 54 73.5 54s-19.966-8.334-20.477-18.8H53V16.4h10.25v16.67l.005.149c.085 2.578.598 4.564 1.54 5.957l.057.083c.035.05.066.098.093.141 1.834 2.543 4.981 4.22 8.555 4.22 3.787 0 7.094-1.882 8.868-4.683.83-1.355 1.29-3.222 1.382-5.6V7H94zM72.646 7v9.4H63.25V7h9.396z"/>
    </g>
</svg>
