<svg width="141" height="36" viewBox="0 0 94 24" xmlns="http://www.w3.org/2000/svg">
    <g fill="#333" fill-rule="evenodd">
        <path d="M82.637 16.944h8.608v3.236h-12.05V4h12.05v3.236h-8.608v3.236h6.887v3.236h-6.887v3.236zM64.733 20.18V4h3.443v12.944h8.608v3.236H64.733zM56.985 7.236h-7.747V4H61.29v3.236l-7.747 9.708h7.747v3.236H49.24v-3.236l7.746-9.708zM42.524 7.236h-7.747V4h12.05v3.236l-7.746 9.708h7.747v3.236H34.777v-3.236l7.747-9.708zM9.389 4c3.372 0 6.106 2.535 6.106 5.663 0 3.096-2.68 5.612-6.006 5.662l-.1.001h-3.49v4.854H2.41V4H9.39zm0 3.236h-3.49v4.854h3.49c1.445 0 2.616-1.086 2.616-2.427 0-1.34-1.171-2.427-2.616-2.427zM32.366 4v9.708h-.008c-.176 3.603-3.265 6.472-7.05 6.472-3.786 0-6.875-2.869-7.051-6.472h-.008V7.236h3.53v5.74l.001.05c.03.888.206 1.571.53 2.051l.02.029.032.048c.632.876 1.715 1.453 2.946 1.453 1.304 0 2.442-.648 3.053-1.612.286-.467.444-1.11.476-1.928V4h3.53zm-7.352 0v3.236h-3.236V4h3.236z"/>
    </g>
</svg>