<svg width="260" height="88" viewBox="0 0 260 88" xmlns="http://www.w3.org/2000/svg">
    <g fill-rule="nonzero" fill="none">
        <path fill="#0D6FFC" d="M0 0h260v88H0z"/>
        <path d="m73.484 29.75-1.138 6.47H90.75l-1.138 6.471H73.508l-1.137 6.471h16.104L86.2 62.105h6.9l5.256-29.886a2.108 2.108 0 0 0-.46-1.718 2.097 2.097 0 0 0-1.607-.752H73.484zM107.536 38.377l1.053-6.169a2.108 2.108 0 0 0-.465-1.711 2.097 2.097 0 0 0-1.604-.748h-4.414l-5.691 32.356h6.903l3.034-17.256h2.838a2.1 2.1 0 0 0 2.067-1.74l.833-4.732h-4.554zM188.052 38.377l1.084-6.158a2.108 2.108 0 0 0-.46-1.718 2.097 2.097 0 0 0-1.607-.752h-4.401l-5.69 32.356h6.901l3.036-17.256h2.84a2.1 2.1 0 0 0 2.067-1.74l.832-4.732h-4.602zM170.929 29.378h-7.626c-4.22 0-8.243 3.43-8.987 7.66l-2.702 15.36h5.141a2.1 2.1 0 0 0 2.067-1.739l2.189-12.445c.23-1.306 1.72-2.365 3.023-2.365h5.268c1.302 0 2.172 1.06 1.942 2.365l-2.648 15.055c-.23 1.305-1.47 2.363-2.771 2.365H132.74l.568-3.236h13.552l3.55-20.18a2.108 2.108 0 0 0-.46-1.717 2.097 2.097 0 0 0-1.608-.752h-31.505l-3.986 22.649h13.552l-.57 3.236h-18.147l-1.138 6.47h60.373c3.88 0 7.581-3.153 8.265-7.044l2.971-16.885c.85-4.86-2.384-8.797-7.228-8.797zM120.983 45.42l1.618-9.197h20.2l-1.618 9.197h-20.2z" fill="#FFF"/>
    </g>
</svg>
