<svg width="650" height="650" viewBox="0 0 650 650" fill="none" xmlns="http://www.w3.org/2000/svg">
<g clip-path="url(#clip0_11_3562)">
<path fill-rule="evenodd" clip-rule="evenodd" d="M364.973 329.986C358.346 329.986 352.973 335.359 352.973 341.986V635.014C352.973 641.641 358.346 647.014 364.973 647.014H426.946V596.892C426.946 592.474 430.528 588.892 434.946 588.892H482.351C486.77 588.892 490.351 592.474 490.351 596.892V647.014H552.324C558.952 647.014 564.324 641.641 564.324 635.014V341.986C564.324 335.359 558.952 329.986 552.324 329.986H364.973Z" fill="#E7E9EB"/>
<rect x="400.527" y="372.257" width="36.9865" height="36.9865" rx="4" fill="#D0D3D7"/>
<rect x="400.527" y="440.946" width="36.9865" height="36.9865" rx="4" fill="#D0D3D7"/>
<rect x="479.784" y="372.257" width="36.9865" height="36.9865" rx="4" fill="#D0D3D7"/>
<rect x="479.784" y="440.946" width="36.9865" height="36.9865" rx="4" fill="#D0D3D7"/>
<rect x="400.527" y="509.635" width="36.9865" height="36.9865" rx="4" fill="#D0D3D7"/>
<rect x="479.784" y="509.635" width="36.9865" height="36.9865" rx="4" fill="#D0D3D7"/>
<rect x="577.534" y="559.831" width="10.5676" height="87.1824" rx="4" fill="#009745"/>
<path fill-rule="evenodd" clip-rule="evenodd" d="M579.378 494.293C580.928 491.682 584.707 491.682 586.257 494.293L629.426 566.998C631.009 569.665 629.088 573.041 625.987 573.041H539.649C536.548 573.041 534.626 569.665 536.209 566.998L579.378 494.293Z" fill="#60D98D"/>
<path fill-rule="evenodd" clip-rule="evenodd" d="M579.378 531.279C580.928 528.669 584.707 528.669 586.257 531.279L629.426 603.985C631.009 606.651 629.088 610.027 625.987 610.027H539.649C536.548 610.027 534.626 606.651 536.209 603.985L579.378 531.279Z" fill="#60D98D"/>
</g>
<defs>
<clipPath id="clip0_11_3562">
<rect width="650" height="650" fill="white"/>
</clipPath>
</defs>
</svg>
