<svg width="650" height="650" viewBox="0 0 650 650" fill="none" xmlns="http://www.w3.org/2000/svg">
<g clip-path="url(#clip0_11_3606)">
<path d="M388.983 329.784C390.37 329.784 391.754 329.907 393.118 330.153C405.251 332.334 413.552 343.535 412.235 355.694L412.151 356.383L411.98 357.5L387.721 464.288L432.656 585.493L502.998 585.494C510.846 553.325 539.719 529.649 574.372 529.649C612.562 529.649 644.371 561.1 647.83 600.189C648.062 604.078 645.792 605.854 642.315 606.054L642.267 606.068H612.581C612.581 583.958 594.817 564.919 574.372 564.919C553.323 564.919 536.502 581.513 536.167 602.491L536.162 603.128V620.764H428.381C416.275 620.764 405.46 613.275 401.161 602L373.431 527.203L354.964 608.504L320.57 600.692L374.094 365.054H330.419C327.172 365.054 324.541 362.422 324.541 359.176V335.662C324.541 332.416 327.172 329.784 330.419 329.784H388.983Z" fill="#67B0F5"/>
<ellipse cx="337.767" cy="604.598" rx="42.6182" ry="42.6182" fill="#21619A"/>
<circle cx="574.372" cy="604.598" r="42.6182" fill="#21619A"/>
</g>
<defs>
<clipPath id="clip0_11_3606">
<rect width="650" height="650" fill="white"/>
</clipPath>
</defs>
</svg>
