<svg width="650" height="650" viewBox="0 0 650 650" fill="none" xmlns="http://www.w3.org/2000/svg">
<rect x="317" y="324" width="288" height="208" fill="#8C84EB"/>
<rect x="317" y="324" width="72" height="52" fill="#C3C1FE"/>
<rect x="389" y="324" width="72" height="52" fill="#8C84EB"/>
<rect x="461" y="324" width="72" height="52" fill="#625DD5"/>
<rect x="533" y="324" width="72" height="52" fill="#A19CFE"/>
<rect x="317" y="376" width="72" height="52" fill="#A19CFE"/>
<rect x="389" y="376" width="72" height="52" fill="#625DD5"/>
<rect x="461" y="376" width="72" height="52" fill="#8C84EB"/>
<rect x="533" y="376" width="72" height="52" fill="#C3C1FE"/>
<rect x="317" y="428" width="72" height="52" fill="#A19CFE"/>
<rect x="389" y="428" width="72" height="52" fill="#5753C1"/>
<rect x="461" y="428" width="72" height="52" fill="#A19CFE"/>
<rect x="533" y="428" width="72" height="52" fill="#C3C1FE"/>
<rect x="317" y="480" width="72" height="52" fill="#8C84EB"/>
<rect x="389" y="480" width="72" height="52" fill="#A19CFE"/>
<rect x="461" y="480" width="72" height="52" fill="#625DD5"/>
<rect x="533" y="480" width="72" height="52" fill="#8C84EB"/>
</svg>
