<svg width="100" height="100" viewBox="0 0 100 100" xmlns="http://www.w3.org/2000/svg" xmlns:xlink="http://www.w3.org/1999/xlink">
    <defs>
        <path d="M18.457 40.096 5.18 46.319A3.636 3.636 0 0 1 0 43.026v-31.34c0-1.41.816-2.694 2.093-3.293L18.457.723a3.636 3.636 0 0 1 3.086 0l16.914 7.928a3.636 3.636 0 0 0 3.086 0L54.82 2.428A3.636 3.636 0 0 1 60 5.72v31.34c0 1.411-.816 2.695-2.093 3.293l-16.364 7.67a3.636 3.636 0 0 1-3.086 0l-16.914-7.927a3.636 3.636 0 0 0-3.086 0z" id="a"/>
    </defs>
    <g fill="none" fill-rule="evenodd">
        <rect fill="#8A86E4" width="100" height="100" rx="20"/>
        <g transform="translate(19.953 25.593)">
            <mask id="b" fill="#fff">
                <use xlink:href="#a"/>
            </mask>
            <use fill="#FFF" xlink:href="#a"/>
            <path fill="#FFF" mask="url(#b)" d="M0 9.374 20 0v39.372L0 48.747zM40 9.374 60 0v39.372l-20 9.375z"/>
            <path fill="#645CC3" mask="url(#b)" transform="matrix(-1 0 0 1 60 0)" d="M20.027 8.462 40 0v40.193l-20 8.554z"/>
        </g>
    </g>
</svg>
