<svg width="100" height="100" viewBox="0 0 100 100" xmlns="http://www.w3.org/2000/svg">
    <g fill="none" fill-rule="evenodd">
        <path fill="#FFF" d="M-260-3311h1920v4446H-260z"/>
        <path d="M-220-3130h1840c22.091 0 40 17.909 40 40V700H-260v-3790c0-22.091 17.909-40 40-40z" fill="#FFF"/>
        <g>
            <rect fill="#67B0F5" width="100" height="100" rx="20"/>
            <g transform="translate(26.364 16.364)">
                <path d="M11.954 0h23.365a3.636 3.636 0 0 1 3.607 3.173l7.82 60.91a3.636 3.636 0 0 1-3.606 4.099H4.133a3.636 3.636 0 0 1-3.607-4.1l7.82-60.909A3.636 3.636 0 0 1 11.955 0z" fill="#21619A"/>
                <rect fill="#FFF" x="21.818" y="7.273" width="3.636" height="9.091" rx="1.818"/>
                <rect fill="#FFF" x="21.818" y="21.818" width="3.636" height="9.091" rx="1.818"/>
                <rect fill="#FFF" x="21.818" y="36.364" width="3.636" height="9.091" rx="1.818"/>
                <rect fill="#FFF" x="21.818" y="50.909" width="3.636" height="9.091" rx="1.818"/>
            </g>
        </g>
    </g>
</svg>
