<svg width="260" height="88" viewBox="0 0 260 88" xmlns="http://www.w3.org/2000/svg">
    <g fill="none" fill-rule="evenodd">
        <path fill="#FFF" d="M0 0h260v88H0z"/>
        <g fill="#E50012" fill-rule="nonzero">
            <path d="M141.663 45.16c-7.845 5.32-13.964.441-13.964.441l2.32-1.118c3.994 2.036 7.607.913 10.035-.49l-.088-.057a11.354 11.354 0 0 0 5.448-11.733 11.33 11.33 0 0 0-9.064-9.215 11.305 11.305 0 0 0-11.779 5.296 11.367 11.367 0 0 0 .836 12.914l-4.577-.734c.245-1.783 0-11.703 0-11.703h-3.422c2.2 8.794-.855 27.621-.855 27.621l4.277.56c.122-2.115 0-11.915 0-11.915l3.975 2.483c-3.328 5.077-2.077 11.88 2.837 15.434 4.914 3.554 11.749 2.597 15.504-2.17 3.756-4.767 3.1-11.654-1.487-15.623l.004.009zm-10.145-20.074a.734.734 0 0 1 .957.844.737.737 0 0 1-.486.553c-3.846 1.315-3.788 4.436-3.788 4.472a.737.737 0 0 1-.711.76h-.023a.731.731 0 0 1-.731-.711c-.05-1.473.894-4.588 4.782-5.918zm-2.299 34.438a.737.737 0 0 1-1.014.227c-1.231-.782-3.272-3.313-2.183-7.288a.733.733 0 0 1 1.413.39c-1.079 3.933 1.534 5.64 1.557 5.655a.738.738 0 0 1 .227 1.016zM31.73 57.876H20.58a1.95 1.95 0 0 1-1.469-.641 2.156 2.156 0 0 1-.623-1.554 2.11 2.11 0 0 1 .61-1.537c.38-.408.913-.636 1.469-.628h11.15c.458 0 .903-.142 1.276-.406.369-.274.658-.64.836-1.064.04-.14.08-.299.119-.455.04-.158.061-.32.061-.483a2.486 2.486 0 0 0-.387-1.317c-.252-.377-.6-.68-1.008-.876a2.161 2.161 0 0 0-.89-.186H24.9a5.818 5.818 0 0 1-3.59-1.162 6.332 6.332 0 0 1-1.365-1.284 6.51 6.51 0 0 1-.95-1.66 7.03 7.03 0 0 1-.504-2.655 6.612 6.612 0 0 1 .298-1.988c.19-.621.458-1.215.799-1.767a6.195 6.195 0 0 1 2.818-2.442 5.912 5.912 0 0 1 2.494-.534h11.151c.557-.008 1.09.219 1.47.626.402.409.62.963.607 1.537a2.173 2.173 0 0 1-.606 1.55 1.95 1.95 0 0 1-1.47.642H24.9a2.133 2.133 0 0 0-1.277.407 2.426 2.426 0 0 0-.836 1.065c-.04.14-.08.292-.12.439a1.82 1.82 0 0 0-.058.47c-.007.477.127.946.386 1.348.251.377.6.68 1.009.874.278.13.582.195.89.19h6.83a5.822 5.822 0 0 1 3.59 1.156 6.426 6.426 0 0 1 2.314 2.945c.337.836.508 1.73.503 2.632a6.727 6.727 0 0 1-.297 2.018 7.555 7.555 0 0 1-.799 1.768 6.193 6.193 0 0 1-2.82 2.442 6.024 6.024 0 0 1-2.485.53zM44.87 55.949a11.118 11.118 0 0 1-3.895-4.984 11.357 11.357 0 0 1-.856-4.387c-.006-1.144.159-2.283.488-3.379a11.68 11.68 0 0 1 1.343-2.943 11.226 11.226 0 0 1 2.079-2.412 10.471 10.471 0 0 1 4.664-2.375 10.151 10.151 0 0 1 5.354.28c2.002.698 3.766 1.95 5.09 3.61a10.808 10.808 0 0 1 1.578 2.788 11.876 11.876 0 0 1 .37 7.786 12.403 12.403 0 0 1-1.342 2.957c-.562.906-1.26 1.72-2.067 2.415a10.183 10.183 0 0 1-2.648 1.666 9.902 9.902 0 0 1-4.16.902 10.05 10.05 0 0 1-3.144-.496 10.883 10.883 0 0 1-2.855-1.428zm2.3-15.169a6.705 6.705 0 0 0-2.42 3.086 7.506 7.506 0 0 0-.204 4.78c.191.64.468 1.251.824 1.817a7.14 7.14 0 0 0 1.285 1.466 6.836 6.836 0 0 0 1.638 1.056 6.397 6.397 0 0 0 4.53.22 6.697 6.697 0 0 0 1.727-.874 7.09 7.09 0 0 0 1.385-1.339 6.971 6.971 0 0 0 1.005-1.713 7.521 7.521 0 0 0 .5-2.708 7.38 7.38 0 0 0-.295-2.088 7.034 7.034 0 0 0-3.717-4.357 6.448 6.448 0 0 0-2.568-.53 6.25 6.25 0 0 0-3.69 1.181v.003zM68.496 40.647c-.248.403-.38.866-.385 1.34v1.408h10.37a1.971 1.971 0 0 1 1.467.624c.403.409.622.964.608 1.538a2.162 2.162 0 0 1-.608 1.548 1.95 1.95 0 0 1-1.466.641H68.11v7.943c.01.577-.21 1.134-.61 1.547a1.95 1.95 0 0 1-1.466.641 1.9 1.9 0 0 1-1.452-.641 2.196 2.196 0 0 1-.594-1.547V41.986c-.002-.899.17-1.79.505-2.624a6.381 6.381 0 0 1 2.31-2.965 7.01 7.01 0 0 1 1.66-.839 5.65 5.65 0 0 1 1.895-.312h10.167a1.95 1.95 0 0 1 1.465.638 2.272 2.272 0 0 1 0 3.096 1.95 1.95 0 0 1-1.465.643H70.36a2.281 2.281 0 0 0-1.05.266c-.34.168-.621.432-.813.758zM105.671 35.88a2.272 2.272 0 0 1 0 3.099 1.95 1.95 0 0 1-1.466.641h-6.62v16.096a2.147 2.147 0 0 1-.592 1.537 1.923 1.923 0 0 1-1.454.624 1.963 1.963 0 0 1-1.468-.624 2.116 2.116 0 0 1-.61-1.537V39.62h-6.617a1.896 1.896 0 0 1-1.453-.641 2.32 2.32 0 0 1 0-3.1 1.899 1.899 0 0 1 1.453-.642h17.36a1.95 1.95 0 0 1 1.467.643zM160.298 57.877a5.63 5.63 0 0 1-2.434-.533 6.356 6.356 0 0 1-1.988-1.455 6.94 6.94 0 0 1-1.84-4.751v-9.136a6.86 6.86 0 0 1 1.068-3.789 6.558 6.558 0 0 1 2.33-2.192 6.133 6.133 0 0 1 3.012-.782h8.102a5.992 5.992 0 0 1 2.51.532 6.496 6.496 0 0 1 3.412 3.584c.33.846.496 1.747.489 2.655.001.87-.165 1.73-.49 2.536a7.236 7.236 0 0 1-1.335 2.162 6.375 6.375 0 0 1-2.035 1.502 5.87 5.87 0 0 1-2.548.56h-10.394v2.375c-.005.467.13.925.387 1.315.21.305.477.566.786.768.305.198.66.3 1.024.297h12.52a1.958 1.958 0 0 1 1.472.642c.399.415.618.972.607 1.549a2.116 2.116 0 0 1-.607 1.537c-.381.408-.916.636-1.472.627l-12.576-.003zm8.25-13.496c.319.004.633-.067.92-.205.269-.129.51-.309.71-.53.195-.217.35-.467.46-.738.106-.258.16-.534.161-.813 0-.627-.126-1.105-.384-1.44a2.87 2.87 0 0 0-.771-.766 1.775 1.775 0 0 0-1.008-.298h-8.19a2.118 2.118 0 0 0-1.633.72 2.43 2.43 0 0 0-.653 1.69v2.376l10.388.004zM180.664 36.397a7.048 7.048 0 0 1 1.657-.839 5.696 5.696 0 0 1 1.902-.321h10.158a1.96 1.96 0 0 1 1.47.643 2.282 2.282 0 0 1 0 3.095 1.95 1.95 0 0 1-1.47.641h-10.158c-.368.003-.73.094-1.054.267-.34.171-.624.438-.816.767-.247.405-.38.869-.386 1.343v13.695a2.16 2.16 0 0 1-.605 1.545 1.95 1.95 0 0 1-1.467.643 1.897 1.897 0 0 1-1.451-.643 2.184 2.184 0 0 1-.593-1.545V41.993c-.004-.9.167-1.792.503-2.627a6.368 6.368 0 0 1 2.31-2.97zM201.734 36.397a7.021 7.021 0 0 1 1.658-.839 5.695 5.695 0 0 1 1.895-.314h10.159a1.95 1.95 0 0 1 1.468.643 2.27 2.27 0 0 1 0 3.095 1.94 1.94 0 0 1-1.468.629h-10.164a2.287 2.287 0 0 0-1.051.267c-.34.17-.622.437-.813.767a2.593 2.593 0 0 0-.385 1.343v13.694a2.163 2.163 0 0 1-.609 1.546c-.374.415-.908.65-1.466.643a1.9 1.9 0 0 1-1.453-.643 2.197 2.197 0 0 1-.592-1.546V41.988c-.002-.9.169-1.792.503-2.628a6.398 6.398 0 0 1 2.318-2.963zM239.44 35.237a1.98 1.98 0 0 1 1.467.623c.4.41.618.964.605 1.537v13.77a6.583 6.583 0 0 1-.297 1.983 7.529 7.529 0 0 1-.797 1.765 6.36 6.36 0 0 1-2.812 2.436 5.981 5.981 0 0 1-2.484.53h-12.428a1.95 1.95 0 0 1-1.465-.625 2.099 2.099 0 0 1-.607-1.538 2.168 2.168 0 0 1 .607-1.537 1.95 1.95 0 0 1 1.465-.64h12.43a2.167 2.167 0 0 0 1.24-.405 2.432 2.432 0 0 0 1.005-1.969v-2.194a6.013 6.013 0 0 1-2.245.436h-8.643a5.819 5.819 0 0 1-1.91-.313 6.87 6.87 0 0 1-1.673-.838 6.013 6.013 0 0 1-1.36-1.297 6.63 6.63 0 0 1-.947-1.677 6.93 6.93 0 0 1-.503-2.621v-5.27a2.121 2.121 0 0 1 .605-1.537c.379-.405.91-.631 1.465-.623a1.934 1.934 0 0 1 1.452.623c.392.414.605.966.592 1.537v5.277c.003.473.135.937.381 1.341.247.372.598.664 1.01.838.276.13.58.195.886.19h8.642c.448.013.886-.13 1.24-.406.377-.251.669-.611.837-1.033.123-.296.182-.615.175-.936v-5.271a2.13 2.13 0 0 1 .608-1.537 1.973 1.973 0 0 1 1.46-.62z"/>
        </g>
    </g>
</svg>
