<svg width="108" height="108" viewBox="0 0 108 108" xmlns="http://www.w3.org/2000/svg">
    <g fill="none" fill-rule="evenodd">
        <path d="m60.734 3.946 25.079 10.972 5.154 2.255A8.4 8.4 0 0 1 96 24.869v31.937h-.004c-.174 14.069-12.608 29.437-37.302 46.105l-.001-.002a8.4 8.4 0 0 1-9.398-.002c-24.686-16.668-37.117-32.034-37.29-46.101H12V24.869a8.4 8.4 0 0 1 5.033-7.696L47.266 3.946a16.8 16.8 0 0 1 13.468 0z" fill="#60D98D"/>
        <path d="m72.016 35.125 7.447 7.387L49.86 71.875l-7.446-7.387.002-.002-13.88-13.767 7.447-7.386L49.862 57.1l22.154-21.975z" fill="#FFF"/>
    </g>
</svg>
