<svg width="260" height="88" viewBox="0 0 260 88" xmlns="http://www.w3.org/2000/svg">
    <g fill="none" fill-rule="evenodd">
        <path fill="#FFF" d="M0 0h260v88H0z"/>
        <g fill-rule="nonzero">
            <path d="m31.867 42.936.79-2.183c2.13-6.073 6.198-12.09 15.062-12.09h22.109l-1.973 5.404H50.353c-3.606 0-5.532 2-7.313 5.555h33.43c-2.475-12.658-14.4-22.256-28.751-22.256-16.144.003-29.231 12.156-29.231 27.133 0 .499.016.993.044 1.484h45.04l-.79 2.182c-2.132 6.073-6.198 12.089-15.064 12.089H25.613l1.97-5.405h17.504c3.604 0 5.527-1.999 7.31-5.554H18.95c2.439 12.696 14.391 22.34 28.768 22.34 16.146 0 29.231-12.147 29.231-27.132 0-.526-.02-1.05-.051-1.567H31.867z" fill="#17288B"/>
            <path fill="#6D6F71" d="M106.736 38.917h-3.802v2.597h3.802V56.44h3.776V32.561h-3.776zM99.8 36.472c-.305-1.607-1.66-2.826-3.292-2.826H92.76l-4.983 18.452H91.6l4.28-15.886h.032l4.287 15.886h3.818L99.8 36.472zM241.512 38.917h-3.802v-6.356h-3.776v23.878h3.776V41.514h3.802zM154.326 43.415h-3.804v9.428h-2.88v-9.428h-3.807v9.428h-4.091v2.51h22.735v-2.51h-8.153zM178.945 43.654h7.417v-2.587h-13.547c-.646 0-.922-.475-.994-1.123h14.54V37.35h-14.564v-1.123h14.565v-2.58h-18.267v6.465c0 1.953 1.461 3.541 3.261 3.541h3.89v1.516h-9.519v2.588h22.736v-2.588h-9.518v-1.514z"/>
            <path d="M177.635 47.756c-5.288 0-8.66 2.433-8.66 5.428s3.376 5.426 8.66 5.426c5.284 0 8.663-2.433 8.663-5.426 0-2.994-3.38-5.428-8.663-5.428zm0 8.309c-3.013 0-4.94-1.287-4.94-2.881 0-1.595 1.927-2.89 4.94-2.89 3.013 0 4.939 1.288 4.939 2.89 0 1.601-1.926 2.88-4.939 2.88zM202.916 40.159h-3.684v4.865h-7.521v2.732h21.653v-2.732h-10.448zM202.536 47.756c-5.287 0-8.66 2.433-8.66 5.428s3.373 5.426 8.66 5.426 8.662-2.433 8.662-5.426c0-2.994-3.38-5.428-8.662-5.428zm0 8.309c-3.015 0-4.94-1.287-4.94-2.881 0-1.595 1.925-2.89 4.94-2.89 3.015 0 4.94 1.288 4.94 2.89 0 1.601-1.93 2.88-4.94 2.88zM114.843 44.921h9.492v1.507h-7.9v2.589h15.8v1.122h-15.792v2.754c0 1.953 1.472 3.546 3.291 3.546h16.24v-2.592H121.12c-.659 0-.874-.474-.925-1.122h15.774v-6.297h-7.882V44.92h9.493V42.33h-22.736v2.592zM125.669 42.33c5.287 0 8.662-2.433 8.662-5.428s-3.379-5.426-8.662-5.426c-5.284 0-8.66 2.428-8.66 5.426s3.38 5.427 8.66 5.427zm0-8.313c3.01 0 4.94 1.294 4.94 2.889 0 1.594-1.93 2.89-4.94 2.89-3.011 0-4.937-1.291-4.937-2.89 0-1.599 1.924-2.893 4.937-2.893v.004zM156.174 36.181c.79 0 1.422.66 1.422 1.473v12.273h3.8V37.119c0-1.915-1.492-3.473-3.347-3.473h-16.14v2.535h14.265z" fill="#6D6F71"/>
            <path d="M207.244 36.104c.763 0 1.372.637 1.372 1.424v5.887h3.665V37.01c0-1.85-1.443-3.364-3.228-3.364h-15.177v2.458h13.368zM224.264 33.646h-3.754l-4.981 18.452h3.818l4.282-15.886h.035l4.282 15.886h3.823l-4.217-15.612c-.298-1.616-1.657-2.84-3.288-2.84z" fill="#6D6F71"/>
        </g>
    </g>
</svg>
