<svg width="256" height="256" viewBox="0 0 256 256" xmlns="http://www.w3.org/2000/svg">
    <g transform="translate(50.162 24.216)" fill="none" fill-rule="evenodd">
        <path d="M39.25 157.436c4.96 2.866 6.66 9.209 3.797 14.17l-15.564 26.977c-2.86 4.957-9.199 6.658-14.156 3.797a7.393 7.393 0 0 1-.006-.003c-4.96-2.866-6.66-9.21-3.797-14.171l15.564-26.976c2.86-4.958 9.198-6.658 14.156-3.798l.006.004zM116.24 157.436c-4.96 2.866-6.66 9.209-3.797 14.17l15.564 26.977c2.86 4.957 9.198 6.658 14.156 3.797l.006-.003c4.96-2.866 6.66-9.21 3.796-14.171l-15.563-26.976c-2.86-4.958-9.199-6.658-14.157-3.798a7.393 7.393 0 0 0-.005.004z" fill="#21619A"/>
        <path d="M114.162 0c22.927 0 41.514 18.586 41.514 41.514v110.702c0 11.464-9.293 20.757-20.757 20.757H20.757C9.293 172.973 0 163.68 0 152.216V41.514C0 18.586 18.586 0 41.514 0h72.648zm0 27.676H41.514c-11.464 0-20.757 9.293-20.757 20.756v38.054c0 5.732 4.646 10.379 10.378 10.379h93.406c5.731 0 10.378-4.647 10.378-10.379V48.432c0-11.463-9.293-20.756-20.757-20.756z" fill="#67B0F5"/>
        <circle fill="#FFF" cx="34.595" cy="138.378" r="10.378"/>
        <circle fill="#FFF" cx="121.081" cy="138.378" r="10.378"/>
    </g>
</svg>
