<svg width="100" height="100" viewBox="0 0 100 100" xmlns="http://www.w3.org/2000/svg">
    <g fill="none" fill-rule="evenodd">
        <rect fill="#78AFEF" width="100" height="100" rx="20"/>
        <path d="M14.545 14.545h70.91v70.91h-70.91z"/>
        <path d="m71.782 29.056-12.489 5.967a22.727 22.727 0 0 0-12.926 20.115l-.003.392v17.925h9.09V55.53c0-5.148 2.899-9.848 7.476-12.165l.282-.14 12.49-5.966-3.92-8.203z" fill="#336196" fill-rule="nonzero"/>
        <path d="M29.754 42.57 41.13 47.1A22.727 22.727 0 0 1 55.447 67.84l.003.376v6.33h-9.09v-6.33c0-5.48-3.28-10.417-8.306-12.55l-.287-.119-11.376-4.53 3.363-8.445z" fill="#FFF" fill-rule="nonzero"/>
        <path d="m61.148 26.917 18.22.669a1.818 1.818 0 0 1 1.508 2.726l-8.53 14.776a1.818 1.818 0 0 1-3.115.057L59.54 29.7a1.818 1.818 0 0 1 1.607-2.783z" fill="#336196"/>
        <path d="m19.974 44.11 17.773-4.07a1.818 1.818 0 0 1 2.162 2.243l-4.416 16.48a1.818 1.818 0 0 1-2.994.862L19.142 47.214a1.818 1.818 0 0 1 .832-3.104z" fill="#FFF"/>
    </g>
</svg>
