<svg width="260" height="88" viewBox="0 0 260 88" xmlns="http://www.w3.org/2000/svg">
    <g fill="none" fill-rule="evenodd">
        <path fill="#FFF" d="M0 0h260v88H0z"/>
        <g fill="#231815" fill-rule="nonzero">
            <path d="m36.298 62.49-7.227-11.336-2.736 2.9v8.436h-7.847V24.707h7.847V44.84l9.189-10.092h9.395L34.386 45.669 45.282 62.49zM76.514 54.286a14.31 14.31 0 0 1-3.148 4.58 14.937 14.937 0 0 1-4.749 3.105 16.351 16.351 0 0 1-11.926.026 14.458 14.458 0 0 1-4.725-3.053 14.188 14.188 0 0 1-3.122-4.555 13.907 13.907 0 0 1-1.137-5.614v-.105a13.907 13.907 0 0 1 1.137-5.614 14.31 14.31 0 0 1 3.148-4.582 14.905 14.905 0 0 1 4.749-3.105 15.459 15.459 0 0 1 5.99-1.139 15.64 15.64 0 0 1 5.937 1.112c1.757.7 3.362 1.736 4.723 3.052a14.212 14.212 0 0 1 3.123 4.555 13.945 13.945 0 0 1 1.137 5.615v.103a13.94 13.94 0 0 1-1.137 5.619zm-6.606-5.616a8.255 8.255 0 0 0-.518-2.925 7.335 7.335 0 0 0-3.82-4.114 6.914 6.914 0 0 0-2.943-.62 7.27 7.27 0 0 0-3.02.596c-.854.38-1.62.936-2.246 1.63a7.127 7.127 0 0 0-1.419 2.408 8.598 8.598 0 0 0-.49 2.923v.103c-.008.999.167 1.99.515 2.926a7.41 7.41 0 0 0 3.795 4.114 6.87 6.87 0 0 0 2.973.62 7.29 7.29 0 0 0 3.02-.596A6.691 6.691 0 0 0 68 54.105a7.159 7.159 0 0 0 1.418-2.407 8.58 8.58 0 0 0 .492-2.923l-.001-.105zM99.59 42.458c-2.616 0-4.673.795-6.171 2.385-1.498 1.59-2.246 4.057-2.244 7.4v10.25h-7.847V34.748h7.847v5.583c.793-1.898 1.878-3.416 3.254-4.553 1.375-1.138 3.234-1.656 5.575-1.553v8.227l-.413.006zM122.416 62.49V47.05c0-1.858-.412-3.26-1.238-4.206-.826-.945-1.999-1.418-3.52-1.42-1.515 0-2.71.473-3.587 1.42-.876.947-1.315 2.35-1.316 4.207V62.49h-7.847V34.748h7.844v3.965c.452-.597.943-1.163 1.47-1.694a10.264 10.264 0 0 1 1.785-1.434 8.898 8.898 0 0 1 2.166-.99 9.094 9.094 0 0 1 2.685-.365c2.995 0 5.31.915 6.945 2.743 1.636 1.829 2.452 4.348 2.45 7.557v17.96h-7.837zM153.281 62.49v-3.003a10.882 10.882 0 0 1-3.458 2.562c-1.341.639-2.977.958-4.906.958a12.263 12.263 0 0 1-3.692-.544 8.64 8.64 0 0 1-3.021-1.63 7.835 7.835 0 0 1-2.04-2.666c-.496-1.052-.744-2.268-.744-3.648v-.103c0-1.52.276-2.83.827-3.934a7.545 7.545 0 0 1 2.296-2.744 10.3 10.3 0 0 1 3.511-1.63 17.454 17.454 0 0 1 4.517-.545c1.238-.014 2.473.09 3.69.313 1.043.205 2.07.481 3.074.826v-.464c0-1.657-.5-2.917-1.497-3.78-.998-.862-2.48-1.293-4.443-1.293a18.4 18.4 0 0 0-4.004.389 26.907 26.907 0 0 0-3.637 1.112l-1.964-6.003c1.54-.663 3.131-1.2 4.758-1.605 1.651-.413 3.647-.62 5.987-.62 4.303 0 7.436 1.052 9.397 3.157 1.962 2.104 2.943 5.036 2.944 8.794v16.098l-7.595.003zm.157-11.18a11.821 11.821 0 0 0-2.3-.744 12.33 12.33 0 0 0-2.708-.287c-1.685 0-3.01.329-3.976.986-.965.656-1.447 1.605-1.445 2.845v.103c0 1.07.396 1.898 1.19 2.485.792.586 1.825.88 3.098.88 1.857 0 3.344-.447 4.46-1.34a4.295 4.295 0 0 0 1.679-3.52l.002-1.407zM180.438 62.515c-1.125.312-2.29.463-3.457.448a12.807 12.807 0 0 1-3.28-.391 5.794 5.794 0 0 1-2.527-1.371 6.57 6.57 0 0 1-1.655-2.563c-.397-1.05-.595-2.388-.595-4.01V41.475h-3.306v-6.728h3.306v-7.086h7.846v7.09h6.504v6.729h-6.504v11.853c0 1.794.843 2.688 2.528 2.683a7.982 7.982 0 0 0 3.873-.984v6.315c-.86.499-1.778.89-2.733 1.167zM206.354 62.49v-3.974a16.938 16.938 0 0 1-1.471 1.695 10.366 10.366 0 0 1-1.784 1.434 8.842 8.842 0 0 1-2.17.991 9.136 9.136 0 0 1-2.685.365c-2.994 0-5.308-.914-6.942-2.742-1.633-1.829-2.45-4.348-2.451-7.557V34.748h7.847v15.436c0 1.86.412 3.263 1.237 4.21.825.945 1.995 1.418 3.512 1.418 1.513 0 2.708-.473 3.586-1.419.878-.946 1.318-2.349 1.318-4.209V34.748h7.846V62.49h-7.843zM240.712 58.069a7.375 7.375 0 0 1-2.246 2.768 10.08 10.08 0 0 1-3.381 1.63 15.317 15.317 0 0 1-4.163.545 19.379 19.379 0 0 1-11.862-4.198l3.357-5.175a18.704 18.704 0 0 0 4.519 2.485c1.496.551 2.898.827 4.206.827 1.134 0 1.968-.188 2.504-.57a1.76 1.76 0 0 0 .801-1.499v-.106c0-.41-.169-.803-.467-1.085a3.848 3.848 0 0 0-1.265-.802 18.452 18.452 0 0 0-1.832-.648c-.688-.206-1.41-.43-2.168-.672a29.218 29.218 0 0 1-2.917-1.01 10.424 10.424 0 0 1-2.66-1.553 7.562 7.562 0 0 1-1.933-2.355c-.495-.93-.743-2.07-.743-3.415v-.104c0-1.413.267-2.664.801-3.752a8.295 8.295 0 0 1 2.153-2.775 9.236 9.236 0 0 1 3.201-1.708c1.281-.388 2.613-.58 3.95-.568 1.815.009 3.616.297 5.343.854 1.762.547 3.44 1.34 4.982 2.354L237.9 42.97a24.788 24.788 0 0 0-4.029-1.89c-1.308-.465-2.461-.697-3.458-.697-.962 0-1.684.18-2.168.542a1.656 1.656 0 0 0-.724 1.373v.104c.003.388.173.755.467 1.008.37.336.786.615 1.237.829.58.283 1.175.532 1.784.745.671.241 1.385.483 2.143.724a33.42 33.42 0 0 1 2.94 1.114c.96.407 1.863.938 2.686 1.578a7.805 7.805 0 0 1 1.962 2.276c.516.895.773 1.982.773 3.262v.104c0 1.56-.267 2.901-.8 4.026z"/>
        </g>
    </g>
</svg>
