<svg width="12" height="12" viewBox="0 0 12 12" xmlns="http://www.w3.org/2000/svg" xmlns:xlink="http://www.w3.org/1999/xlink">
    <defs>
        <filter x="-6.8%" y="-17.9%" width="113.7%" height="139.2%" filterUnits="objectBoundingBox" id="a">
            <feMorphology radius="2.5" operator="dilate" in="SourceAlpha" result="shadowSpreadOuter1"/>
            <feOffset dy="2" in="shadowSpreadOuter1" result="shadowOffsetOuter1"/>
            <feGaussianBlur stdDeviation="5" in="shadowOffsetOuter1" result="shadowBlurOuter1"/>
            <feColorMatrix values="0 0 0 0 0 0 0 0 0 0 0 0 0 0 0 0 0 0 0.06 0" in="shadowBlurOuter1"/>
        </filter>
        <rect id="b" x="0" y="0" width="344" height="120" rx="4"/>
    </defs>
    <g fill="none" fill-rule="evenodd">
        <path fill="#FFF" d="M-108-191h360v760h-360z"/>
        <path d="M-108-191h360v760h-360z" fill="#000" opacity=".5"/>
        <path d="M-88-119h320c11.046 0 20 8.954 20 20v668h-360V-99c0-11.046 8.954-20 20-20z" fill="#FFF"/>
        <text transform="translate(-92 9)" fill="#333" font-family="Pretendard-Bold, Pretendard" font-size="24" font-weight="bold">
                            <tspan x="0" y="23">대한민국 대중교통 분포 현황</tspan>
                        </text>
        <g>
            <g transform="translate(-100 -59)">
                <use fill="#000" filter="url(#a)" xlink:href="#b"/>
                <use fill="#FFF" xlink:href="#b"/>
            </g>
            <path d="m9.291 6.607-4.97 4.261A.8.8 0 0 1 3 10.261V1.739a.8.8 0 0 1 1.32-.607l4.971 4.26a.8.8 0 0 1 0 1.215z" fill="#D0D3D7"/>
        </g>
    </g>
</svg>
