<svg width="260" height="88" viewBox="0 0 260 88" xmlns="http://www.w3.org/2000/svg">
    <g fill="none" fill-rule="evenodd">
        <path fill="#FFF" d="M0 0h260v88H0z"/>
        <g fill="#000" fill-rule="nonzero">
            <path d="M167.19 41.911a5.188 5.188 0 0 0-5.187-5.186H150.19v18.08h11.812a5.188 5.188 0 0 0 3.472-9.04 5.174 5.174 0 0 0 1.716-3.854zm-5.58 10.182h-8.332V47.1h8.335a2.498 2.498 0 0 1 0 4.996l-.004-.002zm0-7.662h-8.332v-4.994h8.335a2.498 2.498 0 0 1 0 4.996l-.004-.002zM171.26 36.723h3.319v18.085h-3.319zM198.179 36.723h3.319v18.085h-3.319zM182.4 51.01V36.725h-3.39v14.287a3.797 3.797 0 0 0 3.796 3.798h11.936v-3.03h-11.574a.768.768 0 0 1-.769-.77zM205.113 39.662h7.02v15.146h3.322V39.662h7.02v-2.939h-17.362zM239.767 36.725v8.881H229.64a.77.77 0 0 1-.768-.768v-8.113h-3.324v8.113a3.797 3.797 0 0 0 3.798 3.797h10.421v6.17H243v-18.08h-3.233zM137.261 36c-5.393 0-9.765 4.372-9.765 9.765 0 5.394 4.372 9.766 9.765 9.766 5.394 0 9.766-4.372 9.766-9.766 0-5.393-4.372-9.765-9.766-9.765zm0 16.547c-3.809 0-6.51-3.036-6.51-6.78 0-3.745 2.701-6.78 6.51-6.78 3.81 0 6.51 3.035 6.51 6.78 0 3.744-2.697 6.778-6.51 6.778v.002zM119.007 36.452a5.67 5.67 0 0 0-4.08 1.728 5.684 5.684 0 0 0-9.766 3.955v12.67h3.21V41.893a2.476 2.476 0 0 1 4.951 0v12.912h3.21V41.893a2.476 2.476 0 0 1 4.95 0v12.912h3.207V42.137a5.686 5.686 0 0 0-5.682-5.685zM17 39.663h7.702a5.395 5.395 0 0 0-.604 2.486v12.656h3.345V42.013a2.35 2.35 0 0 1 2.35-2.35h4.747v-2.938H17v2.938zM71.163 36.588h-4.611a6.239 6.239 0 0 0-6.24 6.24v11.977h3.192V48.63H74.21v6.175h3.192V42.827a6.239 6.239 0 0 0-6.239-6.24zm3.051 9.179h-10.71v-3.031a3.254 3.254 0 0 1 3.256-3.254h4.195a3.253 3.253 0 0 1 3.255 3.254l.004 3.03zM91.973 36.725H81.381v18.08h3.174V48.63h7.418a5.955 5.955 0 0 0 0-11.91v.005zm-.28 9.062h-7.138v-6.215h7.138a3.107 3.107 0 1 1 0 6.215zM50.738 36.452a5.671 5.671 0 0 0-4.08 1.728 5.684 5.684 0 0 0-9.765 3.955v12.67h3.21V41.893a2.476 2.476 0 0 1 4.95 0v12.912h3.21V41.893a2.476 2.476 0 0 1 4.951 0v12.912h3.21V42.137a5.685 5.685 0 0 0-5.686-5.685z"/>
        </g>
    </g>
</svg>
