<svg width="31" height="16" viewBox="0 0 31 16" fill="none" xmlns="http://www.w3.org/2000/svg">
    <path d="M6.46 6.594 5.614 4.01a.57.57 0 0 0-.506-.367h-.986a1.785 1.785 0 1 0-1.217 0H1.919a.572.572 0 0 0-.507.367l-.84 2.55a1.847 1.847 0 0 0-.056.747l.407 2.412c.035.209.238.38.45.38h.047a.46.46 0 0 1 .442.382l.72 4.984c.03.21.229.383.44.383h.966a.46.46 0 0 0 .442-.383l.72-4.984a.46.46 0 0 1 .44-.382h.063a.477.477 0 0 0 .452-.38l.41-2.376a1.85 1.85 0 0 0-.055-.748z" fill="#333"/>
    <path d="m14.45 6.594-.846-2.585a.57.57 0 0 0-.507-.367h-.986a1.785 1.785 0 1 0-1.216 0H9.909a.572.572 0 0 0-.507.367l-.84 2.55a1.847 1.847 0 0 0-.056.747l.406 2.412c.036.209.238.38.45.38h.048a.46.46 0 0 1 .441.382l.72 4.984c.03.21.23.383.441.383h.966a.46.46 0 0 0 .441-.383l.72-4.984a.46.46 0 0 1 .441-.382h.063a.477.477 0 0 0 .452-.38l.409-2.376c.036-.21.012-.546-.054-.748zM22.44 6.594l-.847-2.585a.57.57 0 0 0-.506-.367H20.1a1.785 1.785 0 1 0-1.217 0H17.9a.572.572 0 0 0-.508.367l-.84 2.55a1.847 1.847 0 0 0-.056.747l.407 2.412c.035.209.238.38.45.38h.048a.46.46 0 0 1 .441.382l.72 4.984c.03.21.229.383.44.383h.966a.46.46 0 0 0 .442-.383l.72-4.984a.46.46 0 0 1 .44-.382h.064a.477.477 0 0 0 .451-.38l.41-2.376c.036-.21.011-.546-.055-.748zM30.429 6.594l-.846-2.585a.57.57 0 0 0-.506-.367h-.986a1.785 1.785 0 1 0-1.217 0H25.888a.571.571 0 0 0-.507.367l-.84 2.55a1.847 1.847 0 0 0-.056.747l.407 2.412c.035.209.238.38.45.38h.047a.46.46 0 0 1 .442.382l.72 4.984c.03.21.228.383.44.383h.966a.46.46 0 0 0 .441-.383l.72-4.984a.46.46 0 0 1 .441-.382h.063a.477.477 0 0 0 .452-.38l.41-2.376c.035-.21.01-.546-.055-.748z" fill="#D8D8D8"/>
</svg>
