<svg width="260" height="88" viewBox="0 0 260 88" xmlns="http://www.w3.org/2000/svg">
    <g fill="none" fill-rule="evenodd">
        <path fill="#FFF" d="M0 0h260v88H0z"/>
        <g fill-rule="nonzero">
            <g fill="#00A843">
                <path d="M43.188 24c-10.515-.004-19.27 7.995-20.121 18.381-.85 10.386 6.489 19.68 16.866 21.356 10.378 1.677 20.316-4.824 22.838-14.94h-8.505c-2.421 5.487-8.557 8.362-14.373 6.735-5.816-1.627-9.53-7.257-8.699-13.189.83-5.932 5.95-10.347 11.994-10.343h20.18v-8h-20.18z"/>
                <path d="M46.841 36.691h16.524v8.189H46.841z"/>
            </g>
            <g fill="#404040">
                <path d="M85.757 44.347c-2.039 3.558-5.802 7.985-8.427 10.086-.876.73-1.75.09-3.085-1.324-1.198-1.232-1.934-2.02-1.06-2.83 4.375-4.015 8.979-8.99 8.979-15.562v-1.46H73.92v-5.34h22.15c1.06 0 1.246.959 1.246 2.648 0 1.732-.186 2.692-1.246 2.692h-7.412v1.369c0 5.84 4.512 11.272 8.518 15.014.876.82.51 1.69-.874 3.058-1.53 1.46-1.934 1.87-2.857 1.141-2.716-2.192-5.801-5.934-7.69-9.492zm21.912 18.118c0 1.048-1.152 1.323-3.223 1.323-1.934 0-3.132-.23-3.132-1.278V24.768h6.355v37.697zM129.136 27.69h6.354v23.175c0 2.146-1.019 3.47-3.223 3.47H120.48c-1.197 0-2.902-1.142-3.913-2.147-.969-1.01-1.937-2.42-1.937-3.33V27.681H121v8.35h8.153l-.017-8.343zm0 21.311v-7.62h-8.154v6.565c0 .686.367 1.05 1.02 1.05l7.134.005zm12.709-24.24h6.355v12.877h6.955v5.338H148.2v19.489c0 1.048-1.15 1.323-3.224 1.323-1.934 0-3.131-.23-3.131-1.278V24.76zM169.294 28.328c6.997 0 12.019 4.798 12.019 11.956 0 7.16-5.022 11.957-12.019 11.957s-11.975-4.798-11.975-11.957c0-7.158 4.973-11.956 11.975-11.956zm0 5.25c-3.363 0-5.804 2.646-5.804 6.706 0 4.109 2.44 6.71 5.804 6.71 3.363 0 5.802-2.601 5.802-6.71-.003-4.065-2.441-6.706-5.802-6.706zm22.654 28.887c0 1.048-1.15 1.323-3.223 1.323-1.934 0-3.132-.23-3.132-1.278V24.768h6.355v37.697zM236.573 54.296c1.241 0 1.427.957 1.427 2.692 0 1.768-.186 2.646-1.427 2.646h-38.13v-5.338h38.13zm-11.328-4.747v-5.886h-21.6v-5.34h21.6v-4.518c0-.82-.37-1.01-1.02-1.01h-20.584v-5.338h22.012c1.197 0 2.856 1.048 3.916 2.098.965.96 1.934 2.374 1.934 3.283V49.54c0 1.05-1.106 1.324-3.18 1.324-1.929 0-3.078-.253-3.078-1.316z"/>
            </g>
        </g>
    </g>
</svg>
